<svg width="18" height="18" viewBox="0 0 18 18" fill="none" xmlns="http://www.w3.org/2000/svg">
<path d="M1.83003 11.93L11.93 1.82998C12.023 1.73625 12.1336 1.66186 12.2555 1.61109C12.3773 1.56032 12.508 1.53418 12.64 1.53418C12.772 1.53418 12.9027 1.56032 13.0246 1.61109C13.1465 1.66186 13.2571 1.73625 13.35 1.82998L16.17 4.64998C16.2638 4.74294 16.3382 4.85354 16.3889 4.9754C16.4397 5.09726 16.4658 5.22797 16.4658 5.35998C16.4658 5.49199 16.4397 5.6227 16.3889 5.74455C16.3382 5.86641 16.2638 5.97701 16.17 6.06998L6.07003 16.17C5.97741 16.2645 5.86697 16.3396 5.74509 16.3911C5.62322 16.4426 5.49234 16.4694 5.36003 16.47H2.53003C2.26481 16.47 2.01046 16.3646 1.82292 16.1771C1.63539 15.9895 1.53003 15.7352 1.53003 15.47V12.64C1.53058 12.5077 1.55738 12.3768 1.60887 12.2549C1.66037 12.133 1.73554 12.0226 1.83003 11.93Z" stroke="#000D26" stroke-width="1.5" stroke-linecap="round" stroke-linejoin="round"/>
</svg>
